<svg width="16" height="16" viewBox="0 0 16 16" fill="none" xmlns="http://www.w3.org/2000/svg">
<g id="SVG">
<path id="Subtract" fill-rule="evenodd" clip-rule="evenodd" d="M8 16C12.4183 16 16 12.4183 16 8C16 3.58172 12.4183 0 8 0C3.58172 0 0 3.58172 0 8C0 12.4183 3.58172 16 8 16ZM14.6788 10.9968C14.9598 8.25625 14.2083 5.87572 12.6866 3.76528C12.6829 3.75829 12.6767 3.7532 12.6691 3.75018C11.8103 3.37858 10.8895 3.10485 9.92668 2.94804C9.91806 2.94652 9.90915 2.94761 9.90123 2.95115C9.89331 2.95468 9.88677 2.96049 9.88255 2.96774C9.76415 3.16633 9.63295 3.42545 9.541 3.62912C8.50538 3.48296 7.47515 3.48296 6.46075 3.62912C6.36879 3.421 6.23288 3.16633 6.11397 2.96774C6.10488 2.95313 6.08736 2.9455 6.06984 2.94804C5.10749 3.10437 4.18673 3.37811 3.32728 3.75018C3.31987 3.7532 3.31347 3.75829 3.30926 3.7648C1.56257 6.22556 1.08408 8.62578 1.31886 10.9963C1.31987 11.0079 1.32678 11.019 1.33638 11.026C2.48871 11.8242 3.60517 12.3086 4.70075 12.6298C4.71827 12.6349 4.73679 12.6287 4.74808 12.6152C5.00711 12.2814 5.23818 11.9295 5.43624 11.5595C5.44803 11.5377 5.43675 11.5122 5.413 11.5036C5.04652 11.3725 4.69755 11.2127 4.36189 11.0311C4.33528 11.0165 4.33326 10.9807 4.35768 10.9636C4.42825 10.9137 4.49898 10.8617 4.56635 10.8093C4.57865 10.7998 4.59566 10.7977 4.60997 10.8038C6.81494 11.753 9.20213 11.753 11.3813 10.8038C11.3956 10.7972 11.4127 10.7991 11.4253 10.8088C11.4928 10.8613 11.5634 10.9137 11.6346 10.9636C11.6591 10.9807 11.6574 11.0165 11.6309 11.0311C11.2953 11.2162 10.9463 11.3725 10.5793 11.5029C10.5554 11.5115 10.5448 11.5377 10.5564 11.5595C10.7588 11.929 10.9899 12.2809 11.2442 12.6147C11.2495 12.6216 11.2568 12.6267 11.2653 12.6294C11.2738 12.6321 11.283 12.6323 11.2916 12.6298C12.3924 12.3086 13.5088 11.8242 14.6612 11.026C14.6713 11.019 14.6777 11.0084 14.6788 10.9968ZM5.76551 6.99179C6.44542 6.99179 6.98706 7.57167 6.97645 8.27246C6.97645 8.97816 6.44003 9.55296 5.76551 9.55296C5.10176 9.55296 4.55473 8.97816 4.55473 8.27246C4.55473 7.56659 5.09115 6.99179 5.76551 6.99179ZM10.2426 6.99179C10.9224 6.99179 11.464 7.57167 11.4534 8.27246C11.4534 8.97816 10.9224 9.55296 10.2426 9.55296C9.57872 9.55296 9.03169 8.97816 9.03169 8.27246C9.03169 7.56659 9.56811 6.99179 10.2426 6.99179Z" fill="#D9D9D9"/>
</g>
</svg>
